<?xml version="1.0" standalone="no"?><!DOCTYPE svg PUBLIC "-//W3C//DTD SVG 1.1//EN" "http://www.w3.org/Graphics/SVG/1.1/DTD/svg11.dtd"><svg width="100%" height="100%" viewBox="0 0 336 465" version="1.1" xmlns="http://www.w3.org/2000/svg" xmlns:xlink="http://www.w3.org/1999/xlink" xml:space="preserve" style="fill-rule:evenodd;clip-rule:evenodd;stroke-miterlimit:1.41421;"><path d="M168.541,379.083c-4.42,3.713 -9.989,6.366 -16.708,7.957c-6.719,1.591 -13.791,2.387 -21.217,2.387c-9.371,0 -18.035,-1.768 -25.991,-5.304c-7.957,-3.537 -14.808,-9.15 -20.555,-16.842c-5.746,-7.691 -10.21,-17.636 -13.393,-29.836c-3.183,-12.2 -4.774,-26.875 -4.774,-44.026c0,-17.681 1.812,-32.621 5.437,-44.821c3.625,-12.2 8.443,-22.102 14.454,-29.704c6.012,-7.603 12.952,-13.084 20.82,-16.444c7.868,-3.359 15.957,-5.039 24.267,-5.039c8.487,0 15.515,0.619 21.084,1.857c5.57,1.237 10.388,2.74 14.455,4.508l-4.774,18.035c-3.536,-1.945 -7.691,-3.448 -12.465,-4.509c-4.774,-1.061 -10.255,-1.591 -16.444,-1.591c-6.188,0 -12.023,1.37 -17.504,4.111c-5.481,2.74 -10.343,7.161 -14.587,13.261c-4.243,6.1 -7.602,14.1 -10.078,24.002c-2.475,9.901 -3.713,22.012 -3.713,36.334c0,25.814 4.42,45.219 13.261,58.215c8.84,12.995 20.598,19.493 35.274,19.493c6.011,0 11.404,-0.84 16.178,-2.52c4.774,-1.679 8.84,-3.668 12.2,-5.967l4.773,16.443Z" style="fill:#f18b18;fill-rule:nonzero;stroke-width:1.5px;stroke:#e75f0c;"/><path d="M115.62,340.414c2.24,1.533 5.393,2.977 9.46,4.332c4.066,1.356 8.693,2.033 13.879,2.033c6.601,0 11.964,-1.62 16.09,-4.862c4.126,-3.241 6.188,-8.339 6.188,-15.294c0,-4.597 -1.178,-8.605 -3.536,-12.023c-2.357,-3.418 -5.304,-6.571 -8.84,-9.459c-3.537,-2.888 -7.338,-5.717 -11.405,-8.487c-4.066,-2.77 -7.868,-5.835 -11.404,-9.194c-3.536,-3.36 -6.483,-7.22 -8.84,-11.581c-2.358,-4.362 -3.537,-9.607 -3.537,-15.736c0,-9.902 2.977,-17.239 8.929,-22.013c5.953,-4.774 13.703,-7.161 23.251,-7.161c5.894,0 11.139,0.53 15.736,1.591c4.597,1.061 8.31,2.417 11.139,4.067l-4.243,11.669c-2.122,-1.296 -5.157,-2.475 -9.106,-3.536c-3.949,-1.061 -8.517,-1.591 -13.703,-1.591c-6.365,0 -11.08,1.562 -14.145,4.685c-3.064,3.124 -4.597,7.043 -4.597,11.758c0,4.126 1.179,7.78 3.536,10.962c2.358,3.183 5.305,6.189 8.841,9.018c3.536,2.829 7.337,5.687 11.404,8.575c4.067,2.888 7.868,6.1 11.404,9.636c3.537,3.536 6.483,7.544 8.841,12.023c2.357,4.479 3.536,9.784 3.536,15.913c0,10.373 -3.065,18.506 -9.194,24.4c-6.129,5.894 -14.793,8.84 -25.991,8.84c-7.073,0 -12.878,-0.648 -17.416,-1.945c-4.538,-1.296 -8.163,-2.77 -10.874,-4.42l4.597,-12.2Z" style="fill:#f18b18;fill-rule:nonzero;stroke-width:1.5px;stroke:#e75f0c;"/><path d="M178.744,361.935c3.136,2.145 7.55,4.166 13.243,6.064c5.694,1.898 12.171,2.847 19.432,2.847c9.241,0 16.75,-2.269 22.525,-6.807c5.776,-4.539 8.664,-11.676 8.664,-21.412c0,-6.436 -1.65,-12.047 -4.951,-16.832c-3.3,-4.786 -7.426,-9.2 -12.376,-13.243c-4.951,-4.044 -10.273,-8.004 -15.966,-11.882c-5.694,-3.878 -11.016,-8.169 -15.966,-12.872c-4.951,-4.703 -9.076,-10.107 -12.377,-16.213c-3.3,-6.106 -4.951,-13.45 -4.951,-22.031c0,-13.862 4.167,-24.134 12.501,-30.818c8.333,-6.683 19.184,-10.025 32.551,-10.025c8.251,0 15.594,0.743 22.03,2.228c6.436,1.485 11.634,3.383 15.595,5.693l-5.941,16.337c-2.97,-1.815 -7.22,-3.465 -12.748,-4.95c-5.528,-1.486 -11.923,-2.228 -19.184,-2.228c-8.911,0 -15.512,2.186 -19.803,6.56c-4.29,4.373 -6.436,9.86 -6.436,16.461c0,5.775 1.651,10.891 4.951,15.347c3.301,4.455 7.426,8.663 12.377,12.624c4.95,3.96 10.272,7.962 15.966,12.005c5.693,4.043 11.015,8.54 15.966,13.491c4.95,4.951 9.076,10.561 12.376,16.832c3.301,6.271 4.951,13.697 4.951,22.278c0,14.522 -4.291,25.909 -12.872,34.16c-8.581,8.251 -20.71,12.377 -36.387,12.377c-9.902,0 -18.029,-0.908 -24.382,-2.723c-6.354,-1.815 -11.428,-3.878 -15.224,-6.189l6.436,-17.079Z" style="fill:#f18b18;fill-rule:nonzero;stroke-width:1.5px;stroke:#e75f0c;"/><path d="M160.369,189.813l-13.326,-9.426l-44.528,-1.624l22.752,11.05l35.102,0Z" style="fill:#7bb942;fill-rule:nonzero;stroke-width:1.5px;stroke:#3d8946;"/><path d="M167.657,190.061l45.692,0l24.126,-9.504l-56.476,0.914l-13.342,8.59Z" style="fill:#7bb942;fill-rule:nonzero;stroke-width:1.5px;stroke:#3d8946;"/><path d="M163.229,187.185l15.17,-9.322l-22.846,-14.804l-5.302,14.804l12.978,9.322Z" style="fill:#7bb942;fill-rule:nonzero;stroke-width:1.5px;stroke:#3d8946;"/><path d="M146.413,176.035l3.838,-12.064l-46.606,-18.276l23.304,28.146l19.464,2.194Z" style="fill:#7bb942;fill-rule:nonzero;stroke-width:1.5px;stroke:#3d8946;"/><path d="M178.899,172.657l10.602,-13.526l-19.922,-26.868l-8.59,29.792l17.91,10.602Z" style="fill:#7bb942;fill-rule:nonzero;stroke-width:1.5px;stroke:#3d8946;"/><path d="M185.161,175.121l9.138,-14.256l43.318,-3.472l-32.168,18.642l-20.288,-0.914Z" style="fill:#7bb942;fill-rule:nonzero;stroke-width:1.5px;stroke:#3d8946;"/><path d="M155.187,159.403l-2.194,-14.804l-70.368,-33.266l41.856,36.738l30.706,11.332Z" style="fill:#7bb942;fill-rule:nonzero;stroke-width:1.5px;stroke:#3d8946;"/><path d="M160.487,141.857l-5.3,-16.816l-87.914,-52.822l70.732,61.048l22.482,8.59Z" style="fill:#7bb942;fill-rule:nonzero;stroke-width:1.5px;stroke:#3d8946;"/><path d="M195.031,156.661l21.384,-7.494l27.964,-45.51l-51.542,30.522l2.194,22.482Z" style="fill:#7bb942;fill-rule:nonzero;stroke-width:1.5px;stroke:#3d8946;"/><path d="M169.443,127.051l15.17,9.87l85.538,-80.42l-90.108,54.832l-10.6,15.718Z" style="fill:#7bb942;fill-rule:nonzero;stroke-width:1.5px;stroke:#3d8946;"/><path d="M172.733,111.333l-4.752,-20.104l63.056,-49.898l-24.674,46.424l-33.63,23.578Z" style="fill:#7bb942;fill-rule:nonzero;stroke-width:1.5px;stroke:#3d8946;"/><path d="M164.461,123.485l-21.202,-11.15l-33.63,-60.498l56.66,48.07l-1.828,23.578Z" style="fill:#7bb942;fill-rule:nonzero;stroke-width:1.5px;stroke:#3d8946;"/><path d="M164.325,88.663l18.278,-20.836l-27.416,-66.528l-6.764,67.99l15.902,19.374Z" style="fill:#7bb942;fill-rule:nonzero;stroke-width:1.5px;stroke:#3d8946;"/><path d="M142.351,65.545l1.644,-20.286l-19.372,-15.902l1.644,27.232l16.084,8.956Z" style="fill:#7bb942;fill-rule:nonzero;stroke-width:1.5px;stroke:#3d8946;"/><path d="M187.355,63.123l-4.752,-13.16l18.094,-22.298l0.914,26.684l-14.256,8.774Z" style="fill:#7bb942;fill-rule:nonzero;stroke-width:1.5px;stroke:#3d8946;"/><path d="M3.19,417.379l27.2,0c2.084,0 3.362,1.322 3.835,3.964c0,1.139 -1.537,3.739 -4.609,7.799c-1.203,1.934 -7.272,10.925 -18.208,26.974l0,0.096l18.434,0c2.342,0 3.803,0.774 4.383,2.321c0.15,0.279 0.225,0.677 0.225,1.192l0,0.548c0,1.955 -1.171,3.094 -3.513,3.416l-27.328,0c-2.019,0 -3.222,-1.246 -3.609,-3.738l0,-0.548c0,-0.774 1.354,-3.04 4.061,-6.8l20.528,-30.261c0.107,0 0.247,-0.075 0.419,-0.225l0.548,0c0.816,0.107 1.224,0.505 1.224,1.192l0,0.226c0,0.429 -3.512,5.693 -10.538,15.791l-13.503,20.206c0,0.129 -0.032,0.193 -0.096,0.193c0,0.881 0.58,1.321 1.74,1.321l25.781,0c1.096,0 1.644,-0.322 1.644,-0.966c0,-0.731 -0.548,-1.096 -1.644,-1.096l-21.592,0c-0.666,0 -1.074,-0.483 -1.224,-1.45c0.129,-0.408 4.157,-6.435 12.085,-18.079c7.304,-10.678 11.29,-16.608 11.956,-17.789c0.064,-0.129 0.096,-0.28 0.096,-0.452c-0.193,-0.73 -0.558,-1.095 -1.095,-1.095l-26.426,0c-1.332,0 -1.998,-0.505 -1.998,-1.515c0.258,-0.816 0.666,-1.225 1.224,-1.225Z" style="fill:#e75f0c;fill-rule:nonzero;"/><path d="M55.688,429.851l1.417,0c4.77,0 8.465,2.213 11.086,6.639c1.354,2.428 2.031,5.328 2.031,8.701l0,1.225c0,1.418 -0.999,2.309 -2.997,2.674l-17.822,0c-2.127,-0.257 -3.19,-1.289 -3.19,-3.093c0.301,-2.084 1.332,-3.126 3.094,-3.126l14.534,0c0.494,0 0.816,0.333 0.967,0.999l0,0.258c0,0.494 -0.355,0.816 -1.064,0.966l-14.341,0c-0.644,0 -0.966,0.301 -0.966,0.903c0.042,0.58 0.333,0.87 0.87,0.87l17.918,0c0.515,0 0.773,-0.237 0.773,-0.709l0,-1.064c0,-6.015 -2.267,-10.087 -6.8,-12.214c-1.439,-0.537 -2.771,-0.805 -3.996,-0.805l-0.451,0c-0.129,0 -0.247,-0.032 -0.355,-0.097c-0.107,0.065 -0.225,0.097 -0.354,0.097l-0.258,0c-5.285,0 -9.184,2.922 -11.698,8.765c-0.709,2.471 -1.064,4.663 -1.064,6.575c0,7.046 3.191,11.795 9.572,14.244c1.998,0.537 3.652,0.805 4.963,0.805c3.007,0 6.284,-0.827 9.829,-2.481l0.096,0c0.709,0.172 1.064,0.526 1.064,1.063l0,0.097c0,1.117 -2.664,2.213 -7.992,3.287c-0.645,0.108 -1.375,0.161 -2.192,0.161l-1.514,0c-3.953,0 -7.681,-1.536 -11.183,-4.608c-3.18,-3.287 -4.769,-7.154 -4.769,-11.602l0,-1.611c0,-5.07 1.708,-9.378 5.124,-12.923c2.857,-2.664 6.08,-3.996 9.668,-3.996Z" style="fill:#e75f0c;fill-rule:nonzero;"/><path d="M93.683,428.884l1.224,0c5.436,0 9.174,2.772 11.215,8.315c0.451,1.676 0.677,2.986 0.677,3.931c0.043,10.42 0.064,17.875 0.064,22.366c0,0.408 -0.311,0.687 -0.934,0.838l-0.548,0c-0.151,-0.043 -0.398,-0.258 -0.741,-0.645c-0.065,-1.848 -0.097,-3.04 -0.097,-3.577c0,-3.244 -0.032,-9.571 -0.097,-18.982c0,-2.986 -1.181,-5.628 -3.545,-7.927c-1.804,-1.311 -3.77,-1.966 -5.897,-1.966l-0.58,0c-0.043,0 -0.065,-0.032 -0.065,-0.097l-0.193,0.097l-0.677,0c-3.33,0 -5.822,2.181 -7.476,6.542c-0.559,2.148 -0.838,3.953 -0.838,5.414l0,16.274c0,2.45 -0.935,4.039 -2.804,4.77l-0.934,0.097l-0.838,0c-2.17,0 -3.416,-1.461 -3.739,-4.383c-0.129,-15.877 -0.193,-25.792 -0.193,-29.745c0.344,-0.452 0.687,-0.677 1.031,-0.677l0.194,0c0.752,0 1.128,0.816 1.128,2.449l0,0.838c0,2.277 0.053,11.376 0.161,27.296c0,1.246 0.601,1.869 1.804,1.869l0,0.097c1.246,0 1.869,-0.774 1.869,-2.321l0,-16.371c0,-5.543 1.805,-9.818 5.415,-12.826c1.826,-1.117 3.63,-1.676 5.414,-1.676Z" style="fill:#e75f0c;fill-rule:nonzero;"/><path d="M151.884,417.476l2.127,0c3.652,0 7.551,0.677 11.698,2.03c0.365,0.43 0.548,0.828 0.548,1.193c0,0.644 -0.505,1.074 -1.515,1.289c-4.275,-1.289 -8.207,-1.934 -11.795,-1.934c-9.453,0 -15.748,4.039 -18.885,12.117c-1.203,3.18 -1.804,6.177 -1.804,8.992c0,5.027 1.643,9.646 4.93,13.857c4.125,4.061 9.378,6.091 15.759,6.091c3.395,0 7.359,-0.677 11.892,-2.03l0,-16.952c0,-0.923 -0.322,-1.385 -0.967,-1.385l-9.636,0c-0.58,0 -0.87,0.29 -0.87,0.87c0,0.558 0.258,0.838 0.774,0.838l6.316,0c1.074,0.086 1.611,0.623 1.611,1.611l0,12.343c-0.129,0.988 -0.526,1.482 -1.192,1.482l-0.322,0c-0.774,-0.107 -1.16,-0.494 -1.16,-1.16l0,-11.601l-5.479,0c-2.084,-0.452 -3.126,-1.483 -3.126,-3.094c-0.064,0 -0.097,-0.14 -0.097,-0.419c0,-2.063 1.214,-3.244 3.642,-3.545l9.442,0c1.719,0 2.901,0.816 3.545,2.449c0.065,0.279 0.097,0.569 0.097,0.87l0,18.756c0,1.354 -4.071,2.535 -12.214,3.545l-3.319,0c-7.735,0 -13.954,-3.18 -18.659,-9.539c-2.364,-4.275 -3.545,-8.314 -3.545,-12.117l0,-1.837c0,-5.5 2.073,-10.893 6.219,-16.178c4.211,-4.361 9.539,-6.542 15.985,-6.542Z" style="fill:#e75f0c;fill-rule:nonzero;"/><path d="M186.108,430.367l1.386,0c3.674,0 6.875,1.471 9.604,4.415c1.482,2.062 2.223,4.157 2.223,6.284l0,1.644c0,7.519 0.086,13.417 0.258,17.692c0,1.182 -0.892,2.052 -2.675,2.61c-0.215,0.043 -0.472,0.065 -0.773,0.065l-0.419,0c-1.869,0 -2.911,-1.117 -3.126,-3.352c-0.322,-9.625 -0.602,-14.437 -0.838,-14.437c-0.408,-0.623 -1.311,-0.935 -2.707,-0.935c-5.479,0 -9.475,1.783 -11.988,5.35c-0.688,1.353 -1.032,2.675 -1.032,3.964l0,0.966c0,3.911 2.471,6.209 7.413,6.897c0.386,0 0.88,0.032 1.482,0.097c1.418,0 3.201,-0.581 5.35,-1.741c0.752,0.151 1.128,0.494 1.128,1.032c-0.065,1.181 -1.966,2.105 -5.705,2.771l-1.482,0c-4.34,0 -7.498,-1.729 -9.475,-5.188c-0.58,-1.354 -0.87,-2.589 -0.87,-3.706l0,-1.29c0,-4.275 2.535,-7.584 7.606,-9.925c2.428,-0.924 4.952,-1.386 7.573,-1.386c2.6,0 4.243,0.977 4.931,2.933c0.172,0.644 0.462,5.768 0.87,15.372c0.301,0.279 0.558,0.419 0.773,0.419l0.613,0c0.859,-0.108 1.289,-0.398 1.289,-0.871c-0.237,-1.31 -0.355,-7.637 -0.355,-18.981c0,-2.986 -1.525,-5.403 -4.576,-7.251c-1.955,-0.924 -3.824,-1.386 -5.607,-1.386c-3.374,0 -6.596,0.87 -9.668,2.611l-0.355,0.064c-0.687,-0.172 -1.031,-0.569 -1.031,-1.192c0,-0.86 2.019,-1.869 6.058,-3.03c1.612,-0.343 2.987,-0.515 4.125,-0.515Z" style="fill:#e75f0c;fill-rule:nonzero;"/><path d="M221.815,428.627l0.935,0c1.461,0 2.191,0.376 2.191,1.127l0,0.291c0,0.451 -0.311,0.805 -0.934,1.063l-1.837,-0.193c-2.32,0 -4.157,0.848 -5.511,2.546c-1.332,2.406 -1.998,6.337 -1.998,11.794l0,14.728c0,1.977 -0.687,3.373 -2.062,4.189c-0.559,0.323 -1.139,0.484 -1.741,0.484l-0.837,0c-1.719,0 -2.955,-1.074 -3.707,-3.223c-0.064,-0.795 -0.096,-1.214 -0.096,-1.257c-0.129,-16.113 -0.194,-26.189 -0.194,-30.228c0.344,-0.43 0.688,-0.645 1.032,-0.645l0.193,0c0.773,0 1.16,0.699 1.16,2.095l0,0.451c0,2.449 0.065,11.956 0.194,28.521c0,1.267 0.601,1.901 1.804,1.901l0,0.097c1.268,0 1.902,-0.795 1.902,-2.385l0,-14.534c0,-8.014 1.299,-12.988 3.899,-14.921c1.805,-1.268 3.674,-1.901 5.607,-1.901Z" style="fill:#e75f0c;fill-rule:nonzero;"/><path d="M258.973,415.317l0.741,0c1.762,0 2.954,1.063 3.577,3.19c0.064,0.538 0.097,0.871 0.097,0.999c0.107,23.805 0.161,38.49 0.161,44.054c-0.322,0.43 -0.655,0.645 -0.999,0.645l-0.194,0c-0.408,0 -0.741,-0.247 -0.999,-0.742c0,-0.343 -0.032,-1.342 -0.096,-2.997c0,-3.545 -0.054,-17.219 -0.161,-41.024c0,-1.225 -0.495,-1.837 -1.483,-1.837l-0.548,0c-0.816,0 -1.299,0.516 -1.45,1.547c-0.064,6.789 -0.097,11.967 -0.097,15.533l0,0.548c-0.085,0.859 -0.418,1.289 -0.999,1.289l-0.29,0c-0.429,0 -0.913,-0.462 -1.45,-1.386c-2.105,-2.299 -4.845,-3.448 -8.218,-3.448c-3.222,0 -6.305,1.461 -9.249,4.383c-2.427,3.008 -3.641,6.628 -3.641,10.86l0,1.483c0,4.92 1.826,8.937 5.478,12.052c2.235,1.397 4.34,2.095 6.317,2.095l1.192,0c4.383,0 7.305,-2.342 8.766,-7.025c0.429,-1.783 0.644,-3.524 0.644,-5.221c0,-1.461 -0.247,-3.899 -0.741,-7.315l0,-0.162c0,-0.515 0.365,-0.859 1.096,-1.031c0.795,0 1.257,0.795 1.386,2.385c0.3,2.084 0.483,4.125 0.547,6.123c0,6.811 -2.32,11.322 -6.961,13.535c-1.611,0.666 -3.222,0.999 -4.834,0.999l-1.192,0c-3.846,0 -7.315,-1.794 -10.409,-5.382c-2.385,-3.48 -3.577,-7.143 -3.577,-10.989l0,-1.643c0,-4.62 1.375,-8.669 4.125,-12.15c3.416,-3.523 7.133,-5.285 11.15,-5.285c3.18,0 6.037,0.999 8.572,2.997l0,-0.097c0.065,-6.961 0.097,-11.311 0.097,-13.051c0.387,-2.621 1.601,-3.932 3.642,-3.932Z" style="fill:#e75f0c;fill-rule:nonzero;"/><path d="M284.786,429.851l1.418,0c4.77,0 8.465,2.213 11.086,6.639c1.354,2.428 2.03,5.328 2.03,8.701l0,1.225c0,1.418 -0.999,2.309 -2.997,2.674l-17.821,0c-2.127,-0.257 -3.19,-1.289 -3.19,-3.093c0.3,-2.084 1.332,-3.126 3.093,-3.126l14.534,0c0.495,0 0.817,0.333 0.967,0.999l0,0.258c0,0.494 -0.354,0.816 -1.063,0.966l-14.341,0c-0.645,0 -0.967,0.301 -0.967,0.903c0.043,0.58 0.333,0.87 0.87,0.87l17.918,0c0.516,0 0.774,-0.237 0.774,-0.709l0,-1.064c0,-6.015 -2.267,-10.087 -6.8,-12.214c-1.44,-0.537 -2.772,-0.805 -3.996,-0.805l-0.451,0c-0.129,0 -0.247,-0.032 -0.355,-0.097c-0.107,0.065 -0.225,0.097 -0.354,0.097l-0.258,0c-5.285,0 -9.185,2.922 -11.698,8.765c-0.709,2.471 -1.064,4.663 -1.064,6.575c0,7.046 3.191,11.795 9.571,14.244c1.998,0.537 3.653,0.805 4.963,0.805c3.008,0 6.284,-0.827 9.829,-2.481l0.097,0c0.709,0.172 1.064,0.526 1.064,1.063l0,0.097c0,1.117 -2.665,2.213 -7.993,3.287c-0.644,0.108 -1.375,0.161 -2.191,0.161l-1.515,0c-3.953,0 -7.68,-1.536 -11.182,-4.608c-3.18,-3.287 -4.77,-7.154 -4.77,-11.602l0,-1.611c0,-5.07 1.708,-9.378 5.124,-12.923c2.858,-2.664 6.08,-3.996 9.668,-3.996Z" style="fill:#e75f0c;fill-rule:nonzero;"/><path d="M322.781,428.884l1.225,0c5.435,0 9.174,2.772 11.215,8.315c0.451,1.676 0.676,2.986 0.676,3.931c0.043,10.42 0.065,17.875 0.065,22.366c0,0.408 -0.312,0.687 -0.935,0.838l-0.548,0c-0.15,-0.043 -0.397,-0.258 -0.741,-0.645c-0.064,-1.848 -0.096,-3.04 -0.096,-3.577c0,-3.244 -0.033,-9.571 -0.097,-18.982c0,-2.986 -1.182,-5.628 -3.545,-7.927c-1.805,-1.311 -3.771,-1.966 -5.897,-1.966l-0.581,0c-0.043,0 -0.064,-0.032 -0.064,-0.097l-0.193,0.097l-0.677,0c-3.33,0 -5.822,2.181 -7.477,6.542c-0.558,2.148 -0.838,3.953 -0.838,5.414l0,16.274c0,2.45 -0.934,4.039 -2.803,4.77l-0.935,0.097l-0.838,0c-2.17,0 -3.416,-1.461 -3.738,-4.383c-0.129,-15.877 -0.193,-25.792 -0.193,-29.745c0.343,-0.452 0.687,-0.677 1.031,-0.677l0.193,0c0.752,0 1.128,0.816 1.128,2.449l0,0.838c0,2.277 0.054,11.376 0.161,27.296c0,1.246 0.602,1.869 1.805,1.869l0,0.097c1.246,0 1.869,-0.774 1.869,-2.321l0,-16.371c0,-5.543 1.805,-9.818 5.414,-12.826c1.826,-1.117 3.631,-1.676 5.414,-1.676Z" style="fill:#e75f0c;fill-rule:nonzero;"/></svg>