<?xml version="1.0" encoding="utf-8"?>
<!-- Generator: Adobe Illustrator 17.0.0, SVG Export Plug-In . SVG Version: 6.00 Build 0)  -->
<!DOCTYPE svg PUBLIC "-//W3C//DTD SVG 1.1//EN" "http://www.w3.org/Graphics/SVG/1.1/DTD/svg11.dtd">
<svg version="1.1" id="Calque_1" xmlns="http://www.w3.org/2000/svg" xmlns:xlink="http://www.w3.org/1999/xlink" x="0px" y="0px"
	 width="595.28px" height="595.28px" viewBox="0 0 595.28 595.28" enable-background="new 0 0 595.28 595.28" xml:space="preserve">
<rect x="236.84" y="263.581" fill="none" width="155.335" height="81.61"/>
<text transform="matrix(1 0 0 1 232.8968 350.4846)" fill="#F18B18" stroke="#E75F0C" stroke-width="0.75" stroke-miterlimit="10" font-family="'PTSans-Narrow'" font-size="132.6075">C</text>
<rect x="258.243" y="273.908" fill="none" width="45.907" height="80.033"/>
<text transform="matrix(1 0 0 1 258.2416 335.7913)" fill="#F18B18" stroke="#E75F0C" stroke-width="0.75" stroke-miterlimit="10" font-family="'PTSans-Narrow'" font-size="88.405">S</text>
<rect x="287.718" y="263.204" fill="none" width="56.752" height="96.501"/>
<text transform="matrix(1 0 0 1 287.7172 349.8401)" fill="#F18B18" stroke="#E75F0C" stroke-width="0.75" stroke-miterlimit="10" font-family="'PTSans-Narrow'" font-size="123.767">S</text>
<polygon fill="#7BB942" stroke="#3D8946" stroke-width="0.75" stroke-miterlimit="10" points="285.832,252.269 279.169,247.556 
	256.905,246.744 268.281,252.269 "/>
<polygon fill="#7BB942" stroke="#3D8946" stroke-width="0.75" stroke-miterlimit="10" points="289.476,252.393 312.322,252.393 
	324.385,247.641 296.147,248.098 "/>
<polygon fill="#7BB942" stroke="#3D8946" stroke-width="0.75" stroke-miterlimit="10" points="287.262,250.955 294.847,246.294 
	283.424,238.892 280.773,246.294 "/>
<polygon fill="#7BB942" stroke="#3D8946" stroke-width="0.75" stroke-miterlimit="10" points="278.854,245.38 280.773,239.348 
	257.47,230.21 269.122,244.283 "/>
<polygon fill="#7BB942" stroke="#3D8946" stroke-width="0.75" stroke-miterlimit="10" points="295.097,243.691 300.398,236.928 
	290.437,223.494 286.142,238.39 "/>
<polygon fill="#7BB942" stroke="#3D8946" stroke-width="0.75" stroke-miterlimit="10" points="298.228,244.923 302.797,237.795 
	324.456,236.059 308.372,245.38 "/>
<polygon fill="#7BB942" stroke="#3D8946" stroke-width="0.75" stroke-miterlimit="10" points="283.241,237.064 282.144,229.662 
	246.96,213.029 267.888,231.398 "/>
<polygon fill="#7BB942" stroke="#3D8946" stroke-width="0.75" stroke-miterlimit="10" points="285.891,228.291 283.241,219.883 
	239.284,193.472 274.65,223.996 "/>
<polygon fill="#7BB942" stroke="#3D8946" stroke-width="0.75" stroke-miterlimit="10" points="303.163,235.693 313.855,231.946 
	327.837,209.191 302.066,224.452 "/>
<polygon fill="#7BB942" stroke="#3D8946" stroke-width="0.75" stroke-miterlimit="10" points="290.369,220.888 297.954,225.823 
	340.723,185.613 295.669,213.029 "/>
<polygon fill="#7BB942" stroke="#3D8946" stroke-width="0.75" stroke-miterlimit="10" points="292.014,213.029 289.638,202.977 
	321.166,178.028 308.829,201.24 "/>
<polygon fill="#7BB942" stroke="#3D8946" stroke-width="0.75" stroke-miterlimit="10" points="287.878,219.105 277.277,213.53 
	260.462,183.281 288.792,207.316 "/>
<polygon fill="#7BB942" stroke="#3D8946" stroke-width="0.75" stroke-miterlimit="10" points="287.81,201.694 296.949,191.276 
	283.241,158.012 279.859,192.007 "/>
<polygon fill="#7BB942" stroke="#3D8946" stroke-width="0.75" stroke-miterlimit="10" points="276.823,190.135 277.645,179.992 
	267.959,172.041 268.781,185.657 "/>
<polygon fill="#7BB942" stroke="#3D8946" stroke-width="0.75" stroke-miterlimit="10" points="299.325,188.924 296.949,182.344 
	305.996,171.195 306.453,184.537 "/>
<rect x="201.069" y="365.021" fill="none" width="177.139" height="81.488"/>
<text transform="matrix(1 0 0 1 204.036 389.207)" fill="#E75F0C" font-family="'Clip'" font-size="33">Zen Garden</text>
</svg>
